<svg id="Layer_1" data-name="Layer 1" xmlns="http://www.w3.org/2000/svg" viewBox="0 0 242.74 40.67"><title>logo</title><text x="-7.58" y="-15.33"></text><path d="M76.47,29.08c-.28-7.58-7-13.64-15.36-13.64A16.36,16.36,0,0,0,54.18,17,16.34,16.34,0,0,0,47,15.33a16,16,0,0,0-10.72,4,16.43,16.43,0,0,0-5.95-1.1c-7.42,0-13.62,4.84-15.06,11.27A14,14,0,0,0,7.58,41.75c0,7.66,6.15,13.9,14.42,14.12V56H70v-.12c8.49,0,15.21-6.34,15.21-14.13C85.21,36.19,81.56,31.38,76.47,29.08ZM55,45.89s-3,2.33-9,2.33-8-2.33-8-2.33v-6.2s2.86-3,8.5-3,8.5,3,8.5,3Zm1.21-7.14s-4.08-4.16-9.69-4.16-10.69,4.16-10.69,4.16L33,37.48v3.34c0,.16.49.6.49,1.14a1.2,1.2,0,0,1-.83,1.14A27.69,27.69,0,0,1,33,46.65c-.08.79-1.72.68-1.72,0s.41-3.57.41-3.57c-.44-.18-.47-.62-.47-1.12s-.24-.91.76-1.11V37.11l-4.59-1.85,19.41-8.75,17.85,8.86Zm-10,4.59c-3.92,0-7.09.8-7.09,1.77s3.17,1.78,7.09,1.78,7.08-.8,7.08-1.78S50.1,43.34,46.19,43.34Z" transform="translate(-7.58 -15.33)" style="fill:#06c"/><path d="M101,24a19.21,19.21,0,0,1,8,1.74l-.52,3a15.21,15.21,0,0,0-4.92-1.52,12.5,12.5,0,0,0-5.25.27,4,4,0,0,0-1.73,1,2.94,2.94,0,0,0-.86,1.47,2.62,2.62,0,0,0,.69,2.36,5.05,5.05,0,0,0,2.32,1.27c.8.22,1.86.46,3.17.7s2.31.46,2.93.63q4.75,1.2,5.78,4.12A7,7,0,0,1,109,46.07a8.16,8.16,0,0,1-3.22,2,14.78,14.78,0,0,1-4.87.68,19.1,19.1,0,0,1-8-1.76l.53-3.11a19.47,19.47,0,0,0,6.85,1.58c3.6.16,5.85-.72,6.73-2.64a2.65,2.65,0,0,0-.1-2.76,4.51,4.51,0,0,0-2.81-1.74c-.56-.17-1.54-.4-2.93-.7s-2.43-.59-3.18-.77a13.07,13.07,0,0,1-2.66-1,7.2,7.2,0,0,1-2-1.62,5.55,5.55,0,0,1-1-5.08A6.59,6.59,0,0,1,97,24.5,11,11,0,0,1,101,24Z" transform="translate(-7.58 -15.33)" style="fill:#06c"/><path d="M126.24,24.37l8.5,24h-3.88l-2.16-6.33H118.31l-2.18,6.33h-3.88l8.5-24Zm-6.79,14.4h8.12l-4-11.2Z" transform="translate(-7.58 -15.33)" style="fill:#06c"/><path d="M145.39,24.37q3.9,0,5.86,1.83c1.37,1.24,2.05,3.25,2.05,6s-.69,4.81-2.07,6.12a8.12,8.12,0,0,1-5.84,1.91h-5.8v8.15H136v-24Zm-5.8,3.2v9.52h5.59A4.85,4.85,0,0,0,148.62,36a5,5,0,0,0,1.22-3.66,4.83,4.83,0,0,0-1.22-3.62,3.34,3.34,0,0,0-1.5-.81,6.67,6.67,0,0,0-1.94-.29Z" transform="translate(-7.58 -15.33)" style="fill:#06c"/><path d="M157.2,23.13a2.31,2.31,0,0,1,1.75.7,2.2,2.2,0,0,1,.74,1.75,2.29,2.29,0,0,1-.74,1.76,2.33,2.33,0,0,1-1.75.72,2.5,2.5,0,0,1-1.79-.72,2.61,2.61,0,0,1-.74-1.76,2.49,2.49,0,0,1,.74-1.75A2.43,2.43,0,0,1,157.2,23.13ZM159,30.62V48.39h-3.71V30.62Z" transform="translate(-7.58 -15.33)" style="fill:gray"/><path d="M170,30.26a10.87,10.87,0,0,1,4,.67,5.93,5.93,0,0,1,2.68,1.92,6,6,0,0,1,1,2.27,11.1,11.1,0,0,1,.34,2.73c0,1-.05,2-.13,3H165.17a6.07,6.07,0,0,0,.78,3.32q1.08,1.56,4.11,1.56a37.62,37.62,0,0,0,7.64-.9v3a47.91,47.91,0,0,1-7.72.83q-4.56,0-6.45-2.09t-1.84-7.16q0-4.93,1.84-7Q165.61,30.26,170,30.26Zm0,3c-2,0-3.35.51-4,1.54a7.18,7.18,0,0,0-.78,3.23h9.6a4.93,4.93,0,0,0-.59-3.23C173.5,33.8,172.1,33.29,170,33.29Z" transform="translate(-7.58 -15.33)" style="fill:#666"/><path d="M184.07,30.62V33a14,14,0,0,1,4.11-2.26,8.1,8.1,0,0,1,3.36-.37,6.85,6.85,0,0,1,2.76.93,5,5,0,0,1,1.92,2.14,7,7,0,0,1,.71,3.29V48.39h-3.62V38.14a5.15,5.15,0,0,0-.89-3.19,3.25,3.25,0,0,0-2.32-1.39,6.12,6.12,0,0,0-2.93.39,10.76,10.76,0,0,0-3.08,1.81V48.39h-3.65V30.62Z" transform="translate(-7.58 -15.33)" style="fill:#4d4d4d"/><path d="M205.46,30.24a14.08,14.08,0,0,1,6,1.39c-.3,1.87-.47,2.86-.53,3a11.82,11.82,0,0,0-5.32-1.37q-3.28,0-3.69,1.74a1.5,1.5,0,0,0,.3,1.27,3.29,3.29,0,0,0,1.56.89c.52.12,1.24.27,2.17.43s1.63.31,2.11.44q3.63.87,4.47,3.21a5,5,0,0,1,.15,2.91,5.39,5.39,0,0,1-2.57,3.52,9.12,9.12,0,0,1-4.87,1.1,15.54,15.54,0,0,1-6.19-1.39c.05-.2.12-.66.24-1.37s.23-1.3.31-1.68a11.88,11.88,0,0,0,3.78,1.17,10.63,10.63,0,0,0,4.32-.21,2.59,2.59,0,0,0,1-.67,2.05,2.05,0,0,0,.57-1.1,1.76,1.76,0,0,0-.31-1.34,2.52,2.52,0,0,0-1.5-.94q-.63-.18-1.35-.33a17,17,0,0,0-1.67-.33l-1.35-.27a12.53,12.53,0,0,1-2-.62,7.4,7.4,0,0,1-1.54-1.06,3.59,3.59,0,0,1-1-1.66,5.47,5.47,0,0,1,0-2.28,5.39,5.39,0,0,1,1.23-2.41Q201.74,30.18,205.46,30.24Z" transform="translate(-7.58 -15.33)" style="fill:#333"/><path d="M229,24.37v24h-3.88v-24Z" transform="translate(-7.58 -15.33)"/><path d="M250.32,24.37v3.32h-8.08v20.7h-3.61V27.69h-8.1V24.37Z" transform="translate(-7.58 -15.33)"/></svg>